<?xml version="1.0" encoding="UTF-8" standalone="no"?><!DOCTYPE svg PUBLIC "-//W3C//DTD SVG 1.1//EN" "http://www.w3.org/Graphics/SVG/1.1/DTD/svg11.dtd"><svg width="100%" height="100%" viewBox="0 0 240 240" version="1.1" xmlns="http://www.w3.org/2000/svg" xmlns:xlink="http://www.w3.org/1999/xlink" xml:space="preserve" xmlns:serif="http://www.serif.com/" style="fill-rule:evenodd;clip-rule:evenodd;stroke-linejoin:round;stroke-miterlimit:2;"><path d="M110.501,169.34c-50.894,-4.708 -60.134,-55.505 -60.134,-68.488c0,-5.243 4.257,-9.5 9.5,-9.5c5.243,0 9.5,4.257 9.5,9.5c0,9.947 7.435,50.659 50.323,49.825c44.544,-0.867 51.112,-42.162 50.942,-49.608c-0.119,-5.242 4.039,-9.595 9.281,-9.714c5.242,-0.119 9.595,4.039 9.714,9.281c0.221,9.712 -7.292,61.794 -60.127,68.373l-0,32.206l11.496,0c5.243,-0 9.5,4.257 9.5,9.5c0,5.243 -4.257,9.5 -9.5,9.5l-41.57,0c-5.243,-0 -9.5,-4.257 -9.5,-9.5c0,-5.243 4.257,-9.5 9.5,-9.5l11.074,0l0,-31.875Zm49.569,-109.342l0,40.241c0,22.194 -18.019,40.213 -40.213,40.213c-22.194,0 -40.213,-18.019 -40.213,-40.213l0,-40.241c0,-22.194 18.019,-40.213 40.213,-40.213c22.194,0 40.213,18.019 40.213,40.213Z"/></svg>